<svg xmlns="http://www.w3.org/2000/svg" xmlns:svg="http://www.w3.org/2000/svg" id="svg3355" width="375" height="375" version="1.1" viewBox="0 0 375 375" xml:space="preserve"><metadata id="metadata3361"/><g id="g3363" transform="matrix(1.25,0,0,-1.25,0,375)"><g id="g3428" transform="translate(-16.529906,-5.20128e-6)"><g id="g3379" transform="matrix(1.2720128,0,0,1.2720128,-52.158987,-40.802042)"><g id="g3365" transform="translate(178.0626,235.0086)"><path style="fill:#41b883;fill-opacity:1;fill-rule:nonzero;stroke:none" id="path3367" d="M 0,0 -22.669,-39.264 -45.338,0 -120.829,0 -22.669,-170.017 75.491,0 0,0 Z"/></g><g id="g3369" transform="translate(178.0626,235.0086)"><path style="fill:#34495e;fill-opacity:1;fill-rule:nonzero;stroke:none" id="path3371" d="M 0,0 -22.669,-39.264 -45.338,0 -81.565,0 -22.669,-102.01 36.227,0 0,0 Z"/></g></g><g id="g3385" transform="matrix(1.2720128,0,0,1.2720128,-38.45863,-14.032649)"><rect style="fill:#f60" id="rect3377" width="113.646" height="54.525" x="162.197" y="-116.003" ry="27.262" transform="scale(1,-1)"/><text style="font-style:normal;font-weight:400;font-size:32px;line-height:125%;font-family:sans-serif;letter-spacing:0;word-spacing:0;fill:#000;fill-opacity:1;stroke:none;stroke-width:1px;stroke-linecap:butt;stroke-linejoin:miter;stroke-opacity:1" id="text3373" x="186.611" y="-77.844" transform="scale(1,-1)" xml:space="preserve"><tspan id="tspan3375" x="186.611" y="-77.844" style="font-style:normal;font-variant:normal;font-weight:400;font-stretch:normal;font-size:36px;font-family:'Source Sans Pro';-inkscape-font-specification:'Source Sans Pro';fill:#fff">beta</tspan></text></g></g></g></svg>